<svg xmlns="http://www.w3.org/2000/svg" viewBox="0 0 1200 624" font-family="-apple-system, BlinkMacSystemFont, 'Segoe UI', Helvetica, Arial, sans-serif">
  <defs>
    <marker id="arrow" viewBox="0 0 10 10" refX="5" refY="5" markerWidth="6" markerHeight="6" orient="auto-start-reverse">
      <path d="M0,0 L10,5 L0,10 z" fill="#94A3B8"/>
    </marker>
  </defs>

  <!-- backdrop -->
  <rect x="0" y="0" width="1200" height="624" rx="16" fill="#FFFFFF"/>
  <rect x="0.5" y="0.5" width="1199" height="623" rx="16" fill="none" stroke="#E5E7EB"/>

  <!-- top: the engine -->
  <rect x="330" y="28" width="540" height="48" rx="24" fill="#F8FAFC" stroke="#E2E8F0"/>
  <text x="600" y="52" text-anchor="middle" fill="#0F172A" font-size="16" font-weight="700">25 deterministic biomarkers</text>
  <text x="600" y="69" text-anchor="middle" fill="#94A3B8" font-size="12">tree-sitter + git history &#183; zero LLM &#183; under 30s</text>

  <!-- fan-out connectors -->
  <path d="M600,76 L600,96 M300,96 L900,96 M300,96 L300,116 M600,96 L600,116 M900,96 L900,116" fill="none" stroke="#CBD5E1" stroke-width="1.5" marker-end="url(#arrow)"/>

  <!-- ===== MEASURE ===== -->
  <text x="40" y="180" fill="#F59520" font-size="13" font-weight="700" letter-spacing="2">MEASURE</text>

  <!-- defect (headline) -->
  <rect x="140" y="120" width="320" height="118" rx="12" fill="#FEF6EC" stroke="#F59520" stroke-opacity="0.75"/>
  <text x="160" y="150" fill="#B45309" font-size="11" font-weight="700" letter-spacing="1.5">&#9733; HEADLINE</text>
  <text x="160" y="180" fill="#0F172A" font-size="20" font-weight="700">Defect risk</text>
  <text x="160" y="206" fill="#64748B" font-size="13">Bug-calibrated, 1&#8211;10 per file.</text>
  <text x="160" y="224" fill="#64748B" font-size="13">The number everything is graded on.</text>

  <!-- maintainability -->
  <rect x="490" y="120" width="320" height="118" rx="12" fill="#F8FAFC" stroke="#E2E8F0"/>
  <text x="510" y="150" fill="#94A3B8" font-size="11" font-weight="700" letter-spacing="1.5">CO-EQUAL VIEW</text>
  <text x="510" y="180" fill="#0F172A" font-size="20" font-weight="700">Maintainability</text>
  <text x="510" y="206" fill="#64748B" font-size="13">Cohesion, brain methods, DRY,</text>
  <text x="510" y="224" fill="#64748B" font-size="13">primitive obsession &#8212; change cost.</text>

  <!-- performance -->
  <rect x="840" y="120" width="320" height="118" rx="12" fill="#F8FAFC" stroke="#E2E8F0"/>
  <text x="860" y="150" fill="#94A3B8" font-size="11" font-weight="700" letter-spacing="1.5">CO-EQUAL VIEW</text>
  <text x="860" y="180" fill="#0F172A" font-size="20" font-weight="700">Performance risk</text>
  <text x="860" y="206" fill="#64748B" font-size="13">N+1 / I-O-in-loop shapes,</text>
  <text x="860" y="224" fill="#64748B" font-size="13">resolved through the call graph.</text>

  <!-- converge -->
  <path d="M300,238 L300,262 L600,262 M900,238 L900,262 L600,262 M650,262 L600,262 M600,262 L600,290" fill="none" stroke="#CBD5E1" stroke-width="1.5" marker-end="url(#arrow)"/>

  <!-- ===== LOCATE ===== -->
  <text x="40" y="332" fill="#F59520" font-size="13" font-weight="700" letter-spacing="2">LOCATE</text>
  <rect x="140" y="298" width="1020" height="64" rx="12" fill="#F0F7FF" stroke="#BFDBFE"/>
  <text x="600" y="326" text-anchor="middle" fill="#1E3A8A" font-size="15" font-weight="600">Graph + git history pinpoint where the risk concentrates</text>
  <text x="600" y="348" text-anchor="middle" fill="#64748B" font-size="13">call-graph centrality &#183; hot-path proximity &#183; co-change blast radius</text>

  <path d="M600,362 L600,388" fill="none" stroke="#CBD5E1" stroke-width="1.5" marker-end="url(#arrow)"/>

  <!-- ===== FIX ===== -->
  <text x="40" y="468" fill="#F59520" font-size="13" font-weight="700" letter-spacing="2">FIX</text>
  <rect x="140" y="396" width="1020" height="98" rx="12" fill="#F0FDF4" stroke="#10B981" stroke-opacity="0.8"/>
  <text x="160" y="424" fill="#047857" font-size="13" font-weight="700" letter-spacing="1.5">REFACTORING INTELLIGENCE</text>
  <text x="160" y="448" fill="#64748B" font-size="13">Concrete, graph-aware plans &#8212; not template strings:</text>

  <!-- four chips -->
  <g font-size="13.5" font-weight="600">
    <rect x="160" y="460" width="220" height="26" rx="13" fill="#ECFDF5" stroke="#6EE7B7"/>
    <text x="270" y="477" text-anchor="middle" fill="#065F46">Extract Class</text>
    <rect x="392" y="460" width="220" height="26" rx="13" fill="#ECFDF5" stroke="#6EE7B7"/>
    <text x="502" y="477" text-anchor="middle" fill="#065F46">Extract Helper</text>
    <rect x="624" y="460" width="220" height="26" rx="13" fill="#ECFDF5" stroke="#6EE7B7"/>
    <text x="734" y="477" text-anchor="middle" fill="#065F46">Move Method</text>
    <rect x="856" y="460" width="220" height="26" rx="13" fill="#ECFDF5" stroke="#6EE7B7"/>
    <text x="966" y="477" text-anchor="middle" fill="#065F46">Break Cycle</text>
  </g>

  <path d="M600,494 L600,520" fill="none" stroke="#CBD5E1" stroke-width="1.5" marker-end="url(#arrow)"/>

  <!-- hand-off -->
  <rect x="330" y="528" width="540" height="68" rx="12" fill="#F8FAFC" stroke="#E2E8F0"/>
  <text x="600" y="558" text-anchor="middle" fill="#0F172A" font-size="16" font-weight="700">Your agent executes the plan</text>
  <text x="600" y="580" text-anchor="middle" fill="#94A3B8" font-size="13">copy-to-agent prompt &#183; opt-in LLM code-gen + diff &#183; CLI &#183; MCP &#183; web</text>
</svg>
